<svg width="45" height="45" viewBox="0 0 45 45" fill="none" xmlns="http://www.w3.org/2000/svg">
<path d="M36.2832 28.9715L36.2832 42.826L23.5342 35.8992L36.2832 28.9715Z" stroke="#4D4D4D" stroke-width="1.13788"/>
<path d="M8.4043 42.826L8.4043 28.9715L21.1533 35.8983L8.4043 42.826Z" stroke="#4D4D4D" stroke-width="1.13788"/>
<path d="M22.3438 35.8977L22.3438 12.0023" stroke="#8E8E93" stroke-width="1.13788"/>
<circle cx="22.3437" cy="35.4559" r="3.79878" fill="#4D4D4D"/>
<mask id="path-5-inside-1_5425_292451" fill="white">
<path d="M35.0058 12.6633C35.0058 9.30493 33.6718 6.08415 31.2971 3.70946C28.9224 1.33476 25.7016 0.00067164 22.3433 0.000671387C18.9849 0.000671133 15.7641 1.33476 13.3895 3.70946C11.0148 6.08415 9.68066 9.30493 9.68066 12.6633L22.3433 12.6633H35.0058Z"/>
</mask>
<path d="M35.0058 12.6633C35.0058 9.30493 33.6718 6.08415 31.2971 3.70946C28.9224 1.33476 25.7016 0.00067164 22.3433 0.000671387C18.9849 0.000671133 15.7641 1.33476 13.3895 3.70946C11.0148 6.08415 9.68066 9.30493 9.68066 12.6633L22.3433 12.6633H35.0058Z" stroke="#8E8E93" stroke-width="2.53252" mask="url(#path-5-inside-1_5425_292451)"/>
</svg>
