<svg width="46" height="45" viewBox="0 0 46 45" fill="none" xmlns="http://www.w3.org/2000/svg">
<path d="M18.5781 23.0777L16.1172 21.6569L16.1172 24.4985L18.5781 23.0777ZM1 23.0777L1 23.3238L16.3633 23.3238L16.3633 23.0777L16.3633 22.8316L1 22.8316L1 23.0777Z" fill="#4D4D4D"/>
<path d="M46 23.0777L43.5391 21.6569L43.5391 24.4985L46 23.0777ZM27.0156 23.0777L27.0156 23.3238L43.7852 23.3238L43.7852 23.0777L43.7852 22.8316L27.0156 22.8316L27.0156 23.0777Z" fill="#4D4D4D"/>
<path d="M36.1562 18.6754L36.1562 26.7769L25.8652 22.7261L36.1562 18.6754Z" fill="#D4D4D4" stroke="#4D4D4D" stroke-width="0.703125"/>
<rect x="18.9297" y="18.5074" width="7.73438" height="7.73438" fill="#D4D4D4" stroke="#4D4D4D" stroke-width="0.703125"/>
<path d="M8.66992 23.1405L5.39746 25.0292L5.16406 25.1639L5.16406 20.8466L5.39746 20.9813L8.66992 22.87L8.90332 23.0057L8.66992 23.1405Z" fill="#D9D9D9" stroke="#4D4D4D" stroke-width="0.311603"/>
<path d="M9.38672 22.8707L12.6592 20.982L12.8926 20.8472L12.8926 25.1646L12.6592 25.0298L9.38672 23.1412L9.15332 23.0054L9.38672 22.8707Z" fill="#D9D9D9" stroke="#4D4D4D" stroke-width="0.311603"/>
<path d="M22.5 8H22.75V7.75H22.5V8ZM22.5 18L23.9434 15.5H21.0566L22.5 18ZM0.5 8V8.25H22.5V8V7.75H0.5V8ZM22.5 8H22.25V15.75H22.5H22.75V8H22.5Z" fill="#4D4D4D"/>
</svg>
