<svg width="45" height="45" viewBox="0 0 45 45" fill="none" xmlns="http://www.w3.org/2000/svg">
<path d="M17.5781 23.0777L15.1172 21.6569L15.1172 24.4986L17.5781 23.0777ZM0 23.0777L-2.15142e-08 23.3238L15.3633 23.3238L15.3633 23.0777L15.3633 22.8316L2.15142e-08 22.8316L0 23.0777Z" fill="#4D4D4D"/>
<path d="M45 23.0777L42.5391 21.6569L42.5391 24.4986L45 23.0777ZM26.0156 23.0777L26.0156 23.3238L42.7852 23.3238L42.7852 23.0777L42.7852 22.8316L26.0156 22.8316L26.0156 23.0777Z" fill="#4D4D4D"/>
<path d="M35.1562 18.6754L35.1562 26.7769L24.8652 22.7262L35.1562 18.6754Z" fill="#D4D4D4" stroke="#4D4D4D" stroke-width="0.703125"/>
<rect x="17.9297" y="18.5074" width="7.73438" height="7.73438" fill="#D4D4D4" stroke="#4D4D4D" stroke-width="0.703125"/>
<path d="M7.66992 23.1406L4.39746 25.0292L4.16406 25.164L4.16406 20.8466L4.39746 20.9814L7.66992 22.8701L7.90332 23.0058L7.66992 23.1406Z" fill="#D9D9D9" stroke="#4D4D4D" stroke-width="0.311603"/>
<path d="M8.38672 22.8707L11.6592 20.982L11.8926 20.8473L11.8926 25.1646L11.6592 25.0299L8.38672 23.1412L8.15332 23.0055L8.38672 22.8707Z" fill="#D9D9D9" stroke="#4D4D4D" stroke-width="0.311603"/>
</svg>
