<svg width="45" height="46" viewBox="0 0 45 46" fill="none" xmlns="http://www.w3.org/2000/svg">
<mask id="path-1-inside-1_5425_292411" fill="white">
<path d="M11.7783 0.537598H32.7834V10.2323H11.7783V0.537598Z"/>
</mask>
<path d="M11.7783 0.537598V-0.27029H10.9704V0.537598H11.7783ZM32.7834 0.537598H33.5913V-0.27029H32.7834V0.537598ZM11.7783 0.537598V1.34549H32.7834V0.537598V-0.27029H11.7783V0.537598ZM32.7834 0.537598H31.9755V10.2323H32.7834H33.5913V0.537598H32.7834ZM11.7783 10.2323H12.5862V0.537598H11.7783H10.9704V10.2323H11.7783Z" fill="#4D4D4D" mask="url(#path-1-inside-1_5425_292411)"/>
<rect x="12.1823" y="10.6362" width="9.69466" height="8.88677" stroke="#4D4D4D" stroke-width="0.807888"/>
<mask id="path-4-inside-2_5425_292411" fill="white">
<path d="M22.2812 10.2323H32.7838V19.927H22.2812V10.2323Z"/>
</mask>
<path d="M32.7838 10.2323H33.5917V9.42441H32.7838V10.2323ZM32.7838 19.927V20.7348H33.5917V19.927H32.7838ZM22.2812 10.2323V11.0402H32.7838V10.2323V9.42441H22.2812V10.2323ZM32.7838 10.2323H31.9759V19.927H32.7838H33.5917V10.2323H32.7838ZM32.7838 19.927V19.1191H22.2812V19.927V20.7348H32.7838V19.927Z" fill="#4D4D4D" mask="url(#path-4-inside-2_5425_292411)"/>
<path d="M33.0078 32.88L33.0078 43.8185L22.9414 38.3498L33.0078 32.88Z" stroke="#4D4D4D" stroke-width="0.898613"/>
<path d="M10.9922 43.8186L10.9922 32.8802L21.0586 38.3489L10.9922 43.8186Z" stroke="#4D4D4D" stroke-width="0.898613"/>
<path d="M22 38.349L22 19.4781" stroke="#4D4D4D" stroke-width="0.898613"/>
</svg>
