<svg width="46" height="45" viewBox="0 0 46 45" fill="none" xmlns="http://www.w3.org/2000/svg">
<rect x="0.305353" y="0.305353" width="45.3893" height="44.3893" fill="#F4F4F6"/>
<rect x="0.305353" y="0.305353" width="45.3893" height="44.3893" stroke="#4D4D4D" stroke-width="0.610707"/>
<g clip-path="url(#clip0_5438_291088)">
<mask id="path-2-outside-1_5438_291088" maskUnits="userSpaceOnUse" x="11.3994" y="10.519" width="23" height="23" fill="black">
<rect fill="white" x="11.3994" y="10.519" width="23" height="23"/>
<path d="M13.1811 24.3519L14.6515 24.6163C14.8167 25.1613 15.0353 25.6887 15.304 26.1908L14.4512 27.4181C14.3239 27.6009 14.265 27.8228 14.2848 28.0447C14.3046 28.2666 14.4018 28.4745 14.5595 28.6319L16.4329 30.5054C16.5904 30.6631 16.7983 30.7603 17.0202 30.7801C17.2422 30.7999 17.464 30.741 17.6469 30.6137L18.8739 29.7608C19.3761 30.0296 19.9035 30.2482 20.4485 30.4134L20.7128 31.8837C20.7521 32.1031 20.8674 32.3016 21.0383 32.4445C21.2093 32.5875 21.4251 32.6657 21.6479 32.6655H24.2974C24.5202 32.6656 24.7359 32.5874 24.9069 32.4445C25.0778 32.3016 25.193 32.1031 25.2323 31.8837L25.4967 30.4134C26.0417 30.2482 26.5691 30.0296 27.0712 29.7608L28.2983 30.6138C28.4812 30.7411 28.7031 30.8 28.925 30.7802C29.147 30.7604 29.3549 30.6631 29.5124 30.5054L31.3858 28.6319C31.5434 28.4745 31.6407 28.2666 31.6605 28.0447C31.6803 27.8228 31.6214 27.6009 31.4941 27.4181L30.6412 26.191C30.91 25.6889 31.1285 25.1614 31.2938 24.6164L32.7641 24.3521C32.9835 24.3128 33.182 24.1976 33.3249 24.0266C33.4678 23.8556 33.5461 23.6399 33.5459 23.417V20.7675C33.546 20.5447 33.4678 20.329 33.3249 20.1581C33.1819 19.9871 32.9835 19.8719 32.7642 19.8326L31.2938 19.5683C31.1286 19.0233 30.91 18.4959 30.6413 17.9938L31.4941 16.7666C31.6214 16.5838 31.6803 16.3619 31.6605 16.14C31.6407 15.9181 31.5435 15.7102 31.3858 15.5528L29.5124 13.6791C29.3549 13.5215 29.147 13.4242 28.9251 13.4044C28.7031 13.3846 28.4813 13.4435 28.2984 13.5708L27.0713 14.4237C26.5692 14.155 26.0418 13.9364 25.4968 13.7712L25.2325 12.3008C25.1932 12.0815 25.0779 11.883 24.907 11.74C24.736 11.5971 24.5202 11.5189 24.2974 11.519H21.6479C21.4251 11.5189 21.2094 11.5971 21.0384 11.74C20.8675 11.883 20.7523 12.0815 20.7129 12.3008L20.4486 13.7711C19.9036 13.9363 19.3762 14.1549 18.8741 14.4237L17.6468 13.5708C17.464 13.4435 17.2421 13.3846 17.0202 13.4044C16.7983 13.4242 16.5904 13.5215 16.4329 13.6791L14.5595 15.5526C14.4018 15.7101 14.3046 15.9179 14.2848 16.1399C14.265 16.3618 14.3239 16.5836 14.4512 16.7665L15.3041 17.9936C15.0353 18.4957 14.8168 19.0231 14.6515 19.5681L13.1812 19.8325C12.9618 19.8718 12.7633 19.987 12.6204 20.1579C12.4775 20.3289 12.3992 20.5447 12.3994 20.7675V23.417C12.3993 23.6398 12.4775 23.8556 12.6204 24.0265C12.7633 24.1974 12.9618 24.3126 13.1811 24.3519ZM13.0602 20.7675C13.0595 20.6995 13.083 20.6335 13.1267 20.5813C13.1703 20.5292 13.2311 20.4943 13.2981 20.483L14.9701 20.1822C15.0314 20.1712 15.0883 20.1431 15.1342 20.1012C15.1802 20.0592 15.2135 20.0052 15.2301 19.9452C15.405 19.3138 15.6568 18.7063 15.9799 18.1364C16.0106 18.0822 16.0254 18.0205 16.0225 17.9583C16.0197 17.8961 15.9993 17.836 15.9638 17.7848L14.9938 16.3893C14.9544 16.3339 14.9361 16.2662 14.9422 16.1985C14.9482 16.1308 14.9783 16.0674 15.0269 16.0199L16.9003 14.1464C16.9479 14.0978 17.0112 14.0678 17.079 14.0617C17.1467 14.0557 17.2144 14.074 17.2698 14.1134L18.6652 15.0834C18.7163 15.1189 18.7764 15.1393 18.8386 15.1421C18.9008 15.145 18.9626 15.1302 19.0167 15.0995C19.5866 14.7764 20.1941 14.5245 20.8255 14.3497C20.8855 14.3331 20.9396 14.2999 20.9815 14.2539C21.0235 14.2079 21.0516 14.151 21.0626 14.0897L21.3633 12.4178C21.3746 12.3507 21.4095 12.2899 21.4617 12.2463C21.5139 12.2027 21.5799 12.1791 21.6479 12.1799H24.2974C24.3654 12.1791 24.4314 12.2027 24.4836 12.2463C24.5357 12.2899 24.5706 12.3507 24.5819 12.4178L24.8827 14.0898C24.8937 14.151 24.9218 14.208 24.9638 14.2539C25.0057 14.2999 25.0598 14.3331 25.1198 14.3497C25.7512 14.5246 26.3587 14.7764 26.9286 15.0995C26.9827 15.1302 27.0445 15.145 27.1067 15.1422C27.1689 15.1393 27.229 15.119 27.2801 15.0834L28.6756 14.1134C28.731 14.074 28.7987 14.0557 28.8664 14.0618C28.9341 14.0678 28.9975 14.0979 29.045 14.1465L30.9185 16.02C30.9671 16.0675 30.9972 16.1309 31.0032 16.1986C31.0093 16.2663 30.991 16.334 30.9516 16.3894L29.9815 17.7848C29.946 17.836 29.9256 17.8961 29.9228 17.9583C29.92 18.0205 29.9348 18.0822 29.9655 18.1364C30.2886 18.7063 30.5404 19.3138 30.7153 19.9451C30.7319 20.0051 30.7651 20.0592 30.8111 20.1011C30.8571 20.1431 30.914 20.1712 30.9752 20.1822L32.6472 20.483C32.7142 20.4943 32.775 20.5292 32.8186 20.5813C32.8622 20.6335 32.8858 20.6995 32.885 20.7675V23.417C32.8858 23.485 32.8622 23.5511 32.8186 23.6032C32.775 23.6554 32.7142 23.6903 32.6471 23.7016L30.9752 24.0024C30.9139 24.0134 30.857 24.0415 30.811 24.0834C30.765 24.1253 30.7318 24.1794 30.7152 24.2394C30.5403 24.8707 30.2885 25.4782 29.9654 26.0481C29.9347 26.1023 29.9199 26.164 29.9228 26.2262C29.9256 26.2884 29.946 26.3486 29.9815 26.3997L30.9515 27.7953C30.9909 27.8507 31.0092 27.9183 31.0031 27.9861C30.9971 28.0538 30.967 28.1171 30.9184 28.1647L29.0449 30.0381C28.9974 30.0868 28.9341 30.1168 28.8663 30.1229C28.7986 30.1289 28.7309 30.1106 28.6755 30.0712L27.2801 29.1012C27.229 29.0656 27.1689 29.0453 27.1067 29.0424C27.0445 29.0396 26.9827 29.0543 26.9286 29.0851C26.3587 29.4082 25.7512 29.66 25.1198 29.8349C25.0598 29.8514 25.0057 29.8847 24.9638 29.9306C24.9218 29.9766 24.8937 30.0335 24.8827 30.0948L24.582 31.7667C24.5707 31.8338 24.5358 31.8946 24.4836 31.9382C24.4314 31.9819 24.3654 32.0054 24.2974 32.0047H21.6479C21.5799 32.0054 21.5139 31.9819 21.4617 31.9383C21.4095 31.8946 21.3747 31.8338 21.3634 31.7667L21.0626 30.0948C21.0516 30.0335 21.0235 29.9766 20.9815 29.9306C20.9396 29.8847 20.8855 29.8514 20.8255 29.8349C20.1942 29.66 19.5867 29.4081 19.0168 29.085C18.9626 29.0543 18.9009 29.0395 18.8386 29.0424C18.7764 29.0452 18.7163 29.0656 18.6652 29.1011L17.2697 30.0711C17.2143 30.1105 17.1466 30.1289 17.0789 30.1228C17.0111 30.1167 16.9478 30.0867 16.9003 30.0381L15.0268 28.1647C14.9782 28.1171 14.9481 28.0538 14.9421 27.9861C14.936 27.9183 14.9543 27.8507 14.9937 27.7953L15.9637 26.3997C15.9993 26.3486 16.0196 26.2885 16.0225 26.2263C16.0253 26.1641 16.0105 26.1023 15.9798 26.0482C15.6567 25.4783 15.4049 24.8708 15.23 24.2394C15.2134 24.1794 15.1802 24.1254 15.1342 24.0834C15.0882 24.0415 15.0313 24.0134 14.9701 24.0024L13.2981 23.7016C13.2311 23.6902 13.1703 23.6554 13.1267 23.6032C13.083 23.551 13.0595 23.485 13.0602 23.417V20.7675ZM22.9726 27.73C26.0813 27.73 28.6103 25.2009 28.6103 22.0923C28.6103 18.9837 26.0813 16.4546 22.9726 16.4546C19.864 16.4546 17.335 18.9837 17.335 22.0923C17.335 25.2009 19.864 27.73 22.9726 27.73ZM22.9726 17.1154C23.957 17.1154 24.9192 17.4073 25.7376 17.9542C26.5561 18.501 27.194 19.2783 27.5707 20.1877C27.9473 21.0971 28.0459 22.0978 27.8539 23.0632C27.6618 24.0286 27.1878 24.9154 26.4918 25.6114C25.7958 26.3075 24.909 26.7815 23.9436 26.9735C22.9782 27.1655 21.9775 27.067 21.0681 26.6903C20.1587 26.3136 19.3814 25.6757 18.8345 24.8573C18.2877 24.0388 17.9958 23.0766 17.9958 22.0923C17.9973 20.7728 18.5221 19.5078 19.4551 18.5747C20.3881 17.6417 21.6532 17.1169 22.9726 17.1154ZM20.277 21.9283C20.2463 21.8976 20.222 21.8612 20.2054 21.8211C20.1888 21.781 20.1802 21.738 20.1802 21.6946C20.1802 21.6513 20.1888 21.6083 20.2054 21.5682C20.222 21.5281 20.2463 21.4917 20.277 21.461C20.3077 21.4303 20.3441 21.406 20.3842 21.3894C20.4243 21.3728 20.4673 21.3642 20.5107 21.3642C20.5541 21.3642 20.597 21.3728 20.6371 21.3894C20.6772 21.406 20.7137 21.4303 20.7443 21.461L22.4171 23.1337L25.2008 20.35C25.2315 20.3193 25.2679 20.295 25.308 20.2784C25.3481 20.2618 25.391 20.2532 25.4344 20.2532C25.4778 20.2532 25.5208 20.2617 25.5609 20.2783C25.601 20.2949 25.6374 20.3193 25.6681 20.35C25.6988 20.3806 25.7231 20.4171 25.7397 20.4572C25.7563 20.4972 25.7649 20.5402 25.7649 20.5836C25.7649 20.627 25.7563 20.67 25.7397 20.71C25.7231 20.7501 25.6988 20.7866 25.6681 20.8173L22.6505 23.8349C22.6199 23.8656 22.5834 23.8899 22.5433 23.9065C22.5032 23.9231 22.4603 23.9317 22.4169 23.9317C22.3735 23.9317 22.3305 23.9231 22.2904 23.9065C22.2504 23.8899 22.2139 23.8656 22.1832 23.8349L20.277 21.9283Z"/>
</mask>
<path d="M13.1811 24.3519L14.6515 24.6163C14.8167 25.1613 15.0353 25.6887 15.304 26.1908L14.4512 27.4181C14.3239 27.6009 14.265 27.8228 14.2848 28.0447C14.3046 28.2666 14.4018 28.4745 14.5595 28.6319L16.4329 30.5054C16.5904 30.6631 16.7983 30.7603 17.0202 30.7801C17.2422 30.7999 17.464 30.741 17.6469 30.6137L18.8739 29.7608C19.3761 30.0296 19.9035 30.2482 20.4485 30.4134L20.7128 31.8837C20.7521 32.1031 20.8674 32.3016 21.0383 32.4445C21.2093 32.5875 21.4251 32.6657 21.6479 32.6655H24.2974C24.5202 32.6656 24.7359 32.5874 24.9069 32.4445C25.0778 32.3016 25.193 32.1031 25.2323 31.8837L25.4967 30.4134C26.0417 30.2482 26.5691 30.0296 27.0712 29.7608L28.2983 30.6138C28.4812 30.7411 28.7031 30.8 28.925 30.7802C29.147 30.7604 29.3549 30.6631 29.5124 30.5054L31.3858 28.6319C31.5434 28.4745 31.6407 28.2666 31.6605 28.0447C31.6803 27.8228 31.6214 27.6009 31.4941 27.4181L30.6412 26.191C30.91 25.6889 31.1285 25.1614 31.2938 24.6164L32.7641 24.3521C32.9835 24.3128 33.182 24.1976 33.3249 24.0266C33.4678 23.8556 33.5461 23.6399 33.5459 23.417V20.7675C33.546 20.5447 33.4678 20.329 33.3249 20.1581C33.1819 19.9871 32.9835 19.8719 32.7642 19.8326L31.2938 19.5683C31.1286 19.0233 30.91 18.4959 30.6413 17.9938L31.4941 16.7666C31.6214 16.5838 31.6803 16.3619 31.6605 16.14C31.6407 15.9181 31.5435 15.7102 31.3858 15.5528L29.5124 13.6791C29.3549 13.5215 29.147 13.4242 28.9251 13.4044C28.7031 13.3846 28.4813 13.4435 28.2984 13.5708L27.0713 14.4237C26.5692 14.155 26.0418 13.9364 25.4968 13.7712L25.2325 12.3008C25.1932 12.0815 25.0779 11.883 24.907 11.74C24.736 11.5971 24.5202 11.5189 24.2974 11.519H21.6479C21.4251 11.5189 21.2094 11.5971 21.0384 11.74C20.8675 11.883 20.7523 12.0815 20.7129 12.3008L20.4486 13.7711C19.9036 13.9363 19.3762 14.1549 18.8741 14.4237L17.6468 13.5708C17.464 13.4435 17.2421 13.3846 17.0202 13.4044C16.7983 13.4242 16.5904 13.5215 16.4329 13.6791L14.5595 15.5526C14.4018 15.7101 14.3046 15.9179 14.2848 16.1399C14.265 16.3618 14.3239 16.5836 14.4512 16.7665L15.3041 17.9936C15.0353 18.4957 14.8168 19.0231 14.6515 19.5681L13.1812 19.8325C12.9618 19.8718 12.7633 19.987 12.6204 20.1579C12.4775 20.3289 12.3992 20.5447 12.3994 20.7675V23.417C12.3993 23.6398 12.4775 23.8556 12.6204 24.0265C12.7633 24.1974 12.9618 24.3126 13.1811 24.3519ZM13.0602 20.7675C13.0595 20.6995 13.083 20.6335 13.1267 20.5813C13.1703 20.5292 13.2311 20.4943 13.2981 20.483L14.9701 20.1822C15.0314 20.1712 15.0883 20.1431 15.1342 20.1012C15.1802 20.0592 15.2135 20.0052 15.2301 19.9452C15.405 19.3138 15.6568 18.7063 15.9799 18.1364C16.0106 18.0822 16.0254 18.0205 16.0225 17.9583C16.0197 17.8961 15.9993 17.836 15.9638 17.7848L14.9938 16.3893C14.9544 16.3339 14.9361 16.2662 14.9422 16.1985C14.9482 16.1308 14.9783 16.0674 15.0269 16.0199L16.9003 14.1464C16.9479 14.0978 17.0112 14.0678 17.079 14.0617C17.1467 14.0557 17.2144 14.074 17.2698 14.1134L18.6652 15.0834C18.7163 15.1189 18.7764 15.1393 18.8386 15.1421C18.9008 15.145 18.9626 15.1302 19.0167 15.0995C19.5866 14.7764 20.1941 14.5245 20.8255 14.3497C20.8855 14.3331 20.9396 14.2999 20.9815 14.2539C21.0235 14.2079 21.0516 14.151 21.0626 14.0897L21.3633 12.4178C21.3746 12.3507 21.4095 12.2899 21.4617 12.2463C21.5139 12.2027 21.5799 12.1791 21.6479 12.1799H24.2974C24.3654 12.1791 24.4314 12.2027 24.4836 12.2463C24.5357 12.2899 24.5706 12.3507 24.5819 12.4178L24.8827 14.0898C24.8937 14.151 24.9218 14.208 24.9638 14.2539C25.0057 14.2999 25.0598 14.3331 25.1198 14.3497C25.7512 14.5246 26.3587 14.7764 26.9286 15.0995C26.9827 15.1302 27.0445 15.145 27.1067 15.1422C27.1689 15.1393 27.229 15.119 27.2801 15.0834L28.6756 14.1134C28.731 14.074 28.7987 14.0557 28.8664 14.0618C28.9341 14.0678 28.9975 14.0979 29.045 14.1465L30.9185 16.02C30.9671 16.0675 30.9972 16.1309 31.0032 16.1986C31.0093 16.2663 30.991 16.334 30.9516 16.3894L29.9815 17.7848C29.946 17.836 29.9256 17.8961 29.9228 17.9583C29.92 18.0205 29.9348 18.0822 29.9655 18.1364C30.2886 18.7063 30.5404 19.3138 30.7153 19.9451C30.7319 20.0051 30.7651 20.0592 30.8111 20.1011C30.8571 20.1431 30.914 20.1712 30.9752 20.1822L32.6472 20.483C32.7142 20.4943 32.775 20.5292 32.8186 20.5813C32.8622 20.6335 32.8858 20.6995 32.885 20.7675V23.417C32.8858 23.485 32.8622 23.5511 32.8186 23.6032C32.775 23.6554 32.7142 23.6903 32.6471 23.7016L30.9752 24.0024C30.9139 24.0134 30.857 24.0415 30.811 24.0834C30.765 24.1253 30.7318 24.1794 30.7152 24.2394C30.5403 24.8707 30.2885 25.4782 29.9654 26.0481C29.9347 26.1023 29.9199 26.164 29.9228 26.2262C29.9256 26.2884 29.946 26.3486 29.9815 26.3997L30.9515 27.7953C30.9909 27.8507 31.0092 27.9183 31.0031 27.9861C30.9971 28.0538 30.967 28.1171 30.9184 28.1647L29.0449 30.0381C28.9974 30.0868 28.9341 30.1168 28.8663 30.1229C28.7986 30.1289 28.7309 30.1106 28.6755 30.0712L27.2801 29.1012C27.229 29.0656 27.1689 29.0453 27.1067 29.0424C27.0445 29.0396 26.9827 29.0543 26.9286 29.0851C26.3587 29.4082 25.7512 29.66 25.1198 29.8349C25.0598 29.8514 25.0057 29.8847 24.9638 29.9306C24.9218 29.9766 24.8937 30.0335 24.8827 30.0948L24.582 31.7667C24.5707 31.8338 24.5358 31.8946 24.4836 31.9382C24.4314 31.9819 24.3654 32.0054 24.2974 32.0047H21.6479C21.5799 32.0054 21.5139 31.9819 21.4617 31.9383C21.4095 31.8946 21.3747 31.8338 21.3634 31.7667L21.0626 30.0948C21.0516 30.0335 21.0235 29.9766 20.9815 29.9306C20.9396 29.8847 20.8855 29.8514 20.8255 29.8349C20.1942 29.66 19.5867 29.4081 19.0168 29.085C18.9626 29.0543 18.9009 29.0395 18.8386 29.0424C18.7764 29.0452 18.7163 29.0656 18.6652 29.1011L17.2697 30.0711C17.2143 30.1105 17.1466 30.1289 17.0789 30.1228C17.0111 30.1167 16.9478 30.0867 16.9003 30.0381L15.0268 28.1647C14.9782 28.1171 14.9481 28.0538 14.9421 27.9861C14.936 27.9183 14.9543 27.8507 14.9937 27.7953L15.9637 26.3997C15.9993 26.3486 16.0196 26.2885 16.0225 26.2263C16.0253 26.1641 16.0105 26.1023 15.9798 26.0482C15.6567 25.4783 15.4049 24.8708 15.23 24.2394C15.2134 24.1794 15.1802 24.1254 15.1342 24.0834C15.0882 24.0415 15.0313 24.0134 14.9701 24.0024L13.2981 23.7016C13.2311 23.6902 13.1703 23.6554 13.1267 23.6032C13.083 23.551 13.0595 23.485 13.0602 23.417V20.7675ZM22.9726 27.73C26.0813 27.73 28.6103 25.2009 28.6103 22.0923C28.6103 18.9837 26.0813 16.4546 22.9726 16.4546C19.864 16.4546 17.335 18.9837 17.335 22.0923C17.335 25.2009 19.864 27.73 22.9726 27.73ZM22.9726 17.1154C23.957 17.1154 24.9192 17.4073 25.7376 17.9542C26.5561 18.501 27.194 19.2783 27.5707 20.1877C27.9473 21.0971 28.0459 22.0978 27.8539 23.0632C27.6618 24.0286 27.1878 24.9154 26.4918 25.6114C25.7958 26.3075 24.909 26.7815 23.9436 26.9735C22.9782 27.1655 21.9775 27.067 21.0681 26.6903C20.1587 26.3136 19.3814 25.6757 18.8345 24.8573C18.2877 24.0388 17.9958 23.0766 17.9958 22.0923C17.9973 20.7728 18.5221 19.5078 19.4551 18.5747C20.3881 17.6417 21.6532 17.1169 22.9726 17.1154ZM20.277 21.9283C20.2463 21.8976 20.222 21.8612 20.2054 21.8211C20.1888 21.781 20.1802 21.738 20.1802 21.6946C20.1802 21.6513 20.1888 21.6083 20.2054 21.5682C20.222 21.5281 20.2463 21.4917 20.277 21.461C20.3077 21.4303 20.3441 21.406 20.3842 21.3894C20.4243 21.3728 20.4673 21.3642 20.5107 21.3642C20.5541 21.3642 20.597 21.3728 20.6371 21.3894C20.6772 21.406 20.7137 21.4303 20.7443 21.461L22.4171 23.1337L25.2008 20.35C25.2315 20.3193 25.2679 20.295 25.308 20.2784C25.3481 20.2618 25.391 20.2532 25.4344 20.2532C25.4778 20.2532 25.5208 20.2617 25.5609 20.2783C25.601 20.2949 25.6374 20.3193 25.6681 20.35C25.6988 20.3806 25.7231 20.4171 25.7397 20.4572C25.7563 20.4972 25.7649 20.5402 25.7649 20.5836C25.7649 20.627 25.7563 20.67 25.7397 20.71C25.7231 20.7501 25.6988 20.7866 25.6681 20.8173L22.6505 23.8349C22.6199 23.8656 22.5834 23.8899 22.5433 23.9065C22.5032 23.9231 22.4603 23.9317 22.4169 23.9317C22.3735 23.9317 22.3305 23.9231 22.2904 23.9065C22.2504 23.8899 22.2139 23.8656 22.1832 23.8349L20.277 21.9283Z" fill="#4D4D4D"/>
<path d="M13.1811 24.3519L14.6515 24.6163C14.8167 25.1613 15.0353 25.6887 15.304 26.1908L14.4512 27.4181C14.3239 27.6009 14.265 27.8228 14.2848 28.0447C14.3046 28.2666 14.4018 28.4745 14.5595 28.6319L16.4329 30.5054C16.5904 30.6631 16.7983 30.7603 17.0202 30.7801C17.2422 30.7999 17.464 30.741 17.6469 30.6137L18.8739 29.7608C19.3761 30.0296 19.9035 30.2482 20.4485 30.4134L20.7128 31.8837C20.7521 32.1031 20.8674 32.3016 21.0383 32.4445C21.2093 32.5875 21.4251 32.6657 21.6479 32.6655H24.2974C24.5202 32.6656 24.7359 32.5874 24.9069 32.4445C25.0778 32.3016 25.193 32.1031 25.2323 31.8837L25.4967 30.4134C26.0417 30.2482 26.5691 30.0296 27.0712 29.7608L28.2983 30.6138C28.4812 30.7411 28.7031 30.8 28.925 30.7802C29.147 30.7604 29.3549 30.6631 29.5124 30.5054L31.3858 28.6319C31.5434 28.4745 31.6407 28.2666 31.6605 28.0447C31.6803 27.8228 31.6214 27.6009 31.4941 27.4181L30.6412 26.191C30.91 25.6889 31.1285 25.1614 31.2938 24.6164L32.7641 24.3521C32.9835 24.3128 33.182 24.1976 33.3249 24.0266C33.4678 23.8556 33.5461 23.6399 33.5459 23.417V20.7675C33.546 20.5447 33.4678 20.329 33.3249 20.1581C33.1819 19.9871 32.9835 19.8719 32.7642 19.8326L31.2938 19.5683C31.1286 19.0233 30.91 18.4959 30.6413 17.9938L31.4941 16.7666C31.6214 16.5838 31.6803 16.3619 31.6605 16.14C31.6407 15.9181 31.5435 15.7102 31.3858 15.5528L29.5124 13.6791C29.3549 13.5215 29.147 13.4242 28.9251 13.4044C28.7031 13.3846 28.4813 13.4435 28.2984 13.5708L27.0713 14.4237C26.5692 14.155 26.0418 13.9364 25.4968 13.7712L25.2325 12.3008C25.1932 12.0815 25.0779 11.883 24.907 11.74C24.736 11.5971 24.5202 11.5189 24.2974 11.519H21.6479C21.4251 11.5189 21.2094 11.5971 21.0384 11.74C20.8675 11.883 20.7523 12.0815 20.7129 12.3008L20.4486 13.7711C19.9036 13.9363 19.3762 14.1549 18.8741 14.4237L17.6468 13.5708C17.464 13.4435 17.2421 13.3846 17.0202 13.4044C16.7983 13.4242 16.5904 13.5215 16.4329 13.6791L14.5595 15.5526C14.4018 15.7101 14.3046 15.9179 14.2848 16.1399C14.265 16.3618 14.3239 16.5836 14.4512 16.7665L15.3041 17.9936C15.0353 18.4957 14.8168 19.0231 14.6515 19.5681L13.1812 19.8325C12.9618 19.8718 12.7633 19.987 12.6204 20.1579C12.4775 20.3289 12.3992 20.5447 12.3994 20.7675V23.417C12.3993 23.6398 12.4775 23.8556 12.6204 24.0265C12.7633 24.1974 12.9618 24.3126 13.1811 24.3519ZM13.0602 20.7675C13.0595 20.6995 13.083 20.6335 13.1267 20.5813C13.1703 20.5292 13.2311 20.4943 13.2981 20.483L14.9701 20.1822C15.0314 20.1712 15.0883 20.1431 15.1342 20.1012C15.1802 20.0592 15.2135 20.0052 15.2301 19.9452C15.405 19.3138 15.6568 18.7063 15.9799 18.1364C16.0106 18.0822 16.0254 18.0205 16.0225 17.9583C16.0197 17.8961 15.9993 17.836 15.9638 17.7848L14.9938 16.3893C14.9544 16.3339 14.9361 16.2662 14.9422 16.1985C14.9482 16.1308 14.9783 16.0674 15.0269 16.0199L16.9003 14.1464C16.9479 14.0978 17.0112 14.0678 17.079 14.0617C17.1467 14.0557 17.2144 14.074 17.2698 14.1134L18.6652 15.0834C18.7163 15.1189 18.7764 15.1393 18.8386 15.1421C18.9008 15.145 18.9626 15.1302 19.0167 15.0995C19.5866 14.7764 20.1941 14.5245 20.8255 14.3497C20.8855 14.3331 20.9396 14.2999 20.9815 14.2539C21.0235 14.2079 21.0516 14.151 21.0626 14.0897L21.3633 12.4178C21.3746 12.3507 21.4095 12.2899 21.4617 12.2463C21.5139 12.2027 21.5799 12.1791 21.6479 12.1799H24.2974C24.3654 12.1791 24.4314 12.2027 24.4836 12.2463C24.5357 12.2899 24.5706 12.3507 24.5819 12.4178L24.8827 14.0898C24.8937 14.151 24.9218 14.208 24.9638 14.2539C25.0057 14.2999 25.0598 14.3331 25.1198 14.3497C25.7512 14.5246 26.3587 14.7764 26.9286 15.0995C26.9827 15.1302 27.0445 15.145 27.1067 15.1422C27.1689 15.1393 27.229 15.119 27.2801 15.0834L28.6756 14.1134C28.731 14.074 28.7987 14.0557 28.8664 14.0618C28.9341 14.0678 28.9975 14.0979 29.045 14.1465L30.9185 16.02C30.9671 16.0675 30.9972 16.1309 31.0032 16.1986C31.0093 16.2663 30.991 16.334 30.9516 16.3894L29.9815 17.7848C29.946 17.836 29.9256 17.8961 29.9228 17.9583C29.92 18.0205 29.9348 18.0822 29.9655 18.1364C30.2886 18.7063 30.5404 19.3138 30.7153 19.9451C30.7319 20.0051 30.7651 20.0592 30.8111 20.1011C30.8571 20.1431 30.914 20.1712 30.9752 20.1822L32.6472 20.483C32.7142 20.4943 32.775 20.5292 32.8186 20.5813C32.8622 20.6335 32.8858 20.6995 32.885 20.7675V23.417C32.8858 23.485 32.8622 23.5511 32.8186 23.6032C32.775 23.6554 32.7142 23.6903 32.6471 23.7016L30.9752 24.0024C30.9139 24.0134 30.857 24.0415 30.811 24.0834C30.765 24.1253 30.7318 24.1794 30.7152 24.2394C30.5403 24.8707 30.2885 25.4782 29.9654 26.0481C29.9347 26.1023 29.9199 26.164 29.9228 26.2262C29.9256 26.2884 29.946 26.3486 29.9815 26.3997L30.9515 27.7953C30.9909 27.8507 31.0092 27.9183 31.0031 27.9861C30.9971 28.0538 30.967 28.1171 30.9184 28.1647L29.0449 30.0381C28.9974 30.0868 28.9341 30.1168 28.8663 30.1229C28.7986 30.1289 28.7309 30.1106 28.6755 30.0712L27.2801 29.1012C27.229 29.0656 27.1689 29.0453 27.1067 29.0424C27.0445 29.0396 26.9827 29.0543 26.9286 29.0851C26.3587 29.4082 25.7512 29.66 25.1198 29.8349C25.0598 29.8514 25.0057 29.8847 24.9638 29.9306C24.9218 29.9766 24.8937 30.0335 24.8827 30.0948L24.582 31.7667C24.5707 31.8338 24.5358 31.8946 24.4836 31.9382C24.4314 31.9819 24.3654 32.0054 24.2974 32.0047H21.6479C21.5799 32.0054 21.5139 31.9819 21.4617 31.9383C21.4095 31.8946 21.3747 31.8338 21.3634 31.7667L21.0626 30.0948C21.0516 30.0335 21.0235 29.9766 20.9815 29.9306C20.9396 29.8847 20.8855 29.8514 20.8255 29.8349C20.1942 29.66 19.5867 29.4081 19.0168 29.085C18.9626 29.0543 18.9009 29.0395 18.8386 29.0424C18.7764 29.0452 18.7163 29.0656 18.6652 29.1011L17.2697 30.0711C17.2143 30.1105 17.1466 30.1289 17.0789 30.1228C17.0111 30.1167 16.9478 30.0867 16.9003 30.0381L15.0268 28.1647C14.9782 28.1171 14.9481 28.0538 14.9421 27.9861C14.936 27.9183 14.9543 27.8507 14.9937 27.7953L15.9637 26.3997C15.9993 26.3486 16.0196 26.2885 16.0225 26.2263C16.0253 26.1641 16.0105 26.1023 15.9798 26.0482C15.6567 25.4783 15.4049 24.8708 15.23 24.2394C15.2134 24.1794 15.1802 24.1254 15.1342 24.0834C15.0882 24.0415 15.0313 24.0134 14.9701 24.0024L13.2981 23.7016C13.2311 23.6902 13.1703 23.6554 13.1267 23.6032C13.083 23.551 13.0595 23.485 13.0602 23.417V20.7675ZM22.9726 27.73C26.0813 27.73 28.6103 25.2009 28.6103 22.0923C28.6103 18.9837 26.0813 16.4546 22.9726 16.4546C19.864 16.4546 17.335 18.9837 17.335 22.0923C17.335 25.2009 19.864 27.73 22.9726 27.73ZM22.9726 17.1154C23.957 17.1154 24.9192 17.4073 25.7376 17.9542C26.5561 18.501 27.194 19.2783 27.5707 20.1877C27.9473 21.0971 28.0459 22.0978 27.8539 23.0632C27.6618 24.0286 27.1878 24.9154 26.4918 25.6114C25.7958 26.3075 24.909 26.7815 23.9436 26.9735C22.9782 27.1655 21.9775 27.067 21.0681 26.6903C20.1587 26.3136 19.3814 25.6757 18.8345 24.8573C18.2877 24.0388 17.9958 23.0766 17.9958 22.0923C17.9973 20.7728 18.5221 19.5078 19.4551 18.5747C20.3881 17.6417 21.6532 17.1169 22.9726 17.1154ZM20.277 21.9283C20.2463 21.8976 20.222 21.8612 20.2054 21.8211C20.1888 21.781 20.1802 21.738 20.1802 21.6946C20.1802 21.6513 20.1888 21.6083 20.2054 21.5682C20.222 21.5281 20.2463 21.4917 20.277 21.461C20.3077 21.4303 20.3441 21.406 20.3842 21.3894C20.4243 21.3728 20.4673 21.3642 20.5107 21.3642C20.5541 21.3642 20.597 21.3728 20.6371 21.3894C20.6772 21.406 20.7137 21.4303 20.7443 21.461L22.4171 23.1337L25.2008 20.35C25.2315 20.3193 25.2679 20.295 25.308 20.2784C25.3481 20.2618 25.391 20.2532 25.4344 20.2532C25.4778 20.2532 25.5208 20.2617 25.5609 20.2783C25.601 20.2949 25.6374 20.3193 25.6681 20.35C25.6988 20.3806 25.7231 20.4171 25.7397 20.4572C25.7563 20.4972 25.7649 20.5402 25.7649 20.5836C25.7649 20.627 25.7563 20.67 25.7397 20.71C25.7231 20.7501 25.6988 20.7866 25.6681 20.8173L22.6505 23.8349C22.6199 23.8656 22.5834 23.8899 22.5433 23.9065C22.5032 23.9231 22.4603 23.9317 22.4169 23.9317C22.3735 23.9317 22.3305 23.9231 22.2904 23.9065C22.2504 23.8899 22.2139 23.8656 22.1832 23.8349L20.277 21.9283Z" stroke="#4D4D4D" stroke-width="0.32533" mask="url(#path-2-outside-1_5438_291088)"/>
</g>
<circle cx="8.04565" cy="29.7003" r="0.956853" stroke="#4D4D4D" stroke-width="0.765483"/>
<path d="M27.9521 4.97522C27.9209 4.97465 27.8901 4.98111 27.8613 4.99377C27.8326 5.00644 27.8067 5.02497 27.7852 5.04846C27.7636 5.07201 27.7466 5.10005 27.7354 5.13049C27.7241 5.16089 27.7182 5.19359 27.7188 5.2262C27.7193 5.25875 27.7261 5.291 27.7383 5.32092C27.7504 5.35058 27.769 5.37648 27.791 5.39905L27.79 5.40002L29.541 7.3092L27.791 9.21838C27.7687 9.24108 27.7505 9.2685 27.7383 9.29846C27.7261 9.32835 27.7193 9.36067 27.7188 9.39319C27.7182 9.42575 27.7241 9.45853 27.7354 9.48889C27.7466 9.51933 27.7636 9.54738 27.7852 9.57092C27.8067 9.59443 27.8326 9.61293 27.8613 9.62561C27.8901 9.63827 27.9209 9.64474 27.9521 9.64417C27.9834 9.64356 28.0146 9.63645 28.043 9.62268C28.0712 9.60894 28.0965 9.58929 28.1172 9.56506V9.56409L30.0264 7.48303C30.0688 7.4367 30.0917 7.37435 30.0918 7.31018C30.0918 7.24586 30.0689 7.18279 30.0264 7.13635L28.1162 5.05334C28.0957 5.02961 28.0708 5.01023 28.043 4.9967C28.0146 4.98293 27.9834 4.97582 27.9521 4.97522Z" fill="#4D4D4D" stroke="#4D4D4D" stroke-width="0.0765483"/>
<path d="M29.6708 7.30957H12.4474C9.9108 7.30957 7.85449 9.36588 7.85449 11.9025V28.7431" stroke="#4D4D4D" stroke-width="0.765483"/>
<circle cx="37.6604" cy="15.2996" r="0.956853" transform="rotate(180 37.6604 15.2996)" stroke="#4D4D4D" stroke-width="0.765483"/>
<path d="M17.7539 40.0246C17.7851 40.0252 17.816 40.0187 17.8447 40.006C17.8734 39.9934 17.8993 39.9748 17.9209 39.9514C17.9425 39.9278 17.9594 39.8998 17.9707 39.8693C17.9819 39.8389 17.9878 39.8062 17.9873 39.7736C17.9867 39.7411 17.98 39.7088 17.9678 39.6789C17.9557 39.6492 17.937 39.6233 17.915 39.6008L17.916 39.5998L16.165 37.6906L17.915 35.7814C17.9374 35.7587 17.9555 35.7313 17.9678 35.7014C17.98 35.6715 17.9867 35.6391 17.9873 35.6066C17.9878 35.5741 17.9819 35.5413 17.9707 35.5109C17.9594 35.4805 17.9425 35.4524 17.9209 35.4289C17.8993 35.4054 17.8735 35.3869 17.8447 35.3742C17.816 35.3615 17.7851 35.3551 17.7539 35.3557C17.7226 35.3563 17.6914 35.3634 17.6631 35.3771C17.6349 35.3909 17.6096 35.4105 17.5889 35.4348V35.4357L15.6797 37.5168C15.6373 37.5631 15.6144 37.6255 15.6143 37.6896C15.6143 37.754 15.6372 37.817 15.6797 37.8635L17.5898 39.9465C17.6104 39.9702 17.6353 39.9896 17.6631 40.0031C17.6914 40.0169 17.7226 40.024 17.7539 40.0246Z" fill="#4D4D4D" stroke="#4D4D4D" stroke-width="0.0765483"/>
<path d="M16.0353 37.6903H33.2587C35.7953 37.6903 37.8516 35.634 37.8516 33.0974V16.2568" stroke="#4D4D4D" stroke-width="0.765483"/>
<defs>
<clipPath id="clip0_5438_291088">
<rect width="21.1465" height="21.1465" fill="white" transform="translate(12.3994 11.5199)"/>
</clipPath>
</defs>
</svg>
