<svg width="45" height="45" viewBox="0 0 45 45" fill="none" xmlns="http://www.w3.org/2000/svg">
<mask id="path-1-inside-1_5425_292210" fill="white">
<path d="M12 2H33V44H12V2Z"/>
</mask>
<path d="M12 2H33V44H12V2Z" fill="#A3AAB3"/>
<path d="M12 2V1H11V2H12ZM33 2H34V1H33V2ZM33 44V45H34V44H33ZM12 44H11V45H12V44ZM12 2V3H33V2V1H12V2ZM33 2H32V44H33H34V2H33ZM33 44V43H12V44V45H33V44ZM12 44H13V2H12H11V44H12Z" fill="#4D4D4D" mask="url(#path-1-inside-1_5425_292210)"/>
<path d="M22.5 7.5C23.498 7.5 24.4867 8.17699 25.2529 9.4541C26.0132 10.7213 26.5 12.504 26.5 14.5C26.5 16.496 26.0132 18.2787 25.2529 19.5459C24.4867 20.823 23.498 21.5 22.5 21.5C21.502 21.5 20.5133 20.823 19.7471 19.5459C18.9868 18.2787 18.5 16.496 18.5 14.5C18.5 12.504 18.9868 10.7213 19.7471 9.4541C20.5133 8.17699 21.502 7.5 22.5 7.5Z" fill="white" stroke="#8E8E93"/>
<path d="M22.5 25.5C23.498 25.5 24.4867 26.177 25.2529 27.4541C26.0132 28.7213 26.5 30.504 26.5 32.5C26.5 34.496 26.0132 36.2787 25.2529 37.5459C24.4867 38.823 23.498 39.5 22.5 39.5C21.502 39.5 20.5133 38.823 19.7471 37.5459C18.9868 36.2787 18.5 34.496 18.5 32.5C18.5 30.504 18.9868 28.7213 19.7471 27.4541C20.5133 26.177 21.502 25.5 22.5 25.5Z" fill="white" stroke="#8E8E93"/>
</svg>
