<svg width="45" height="45" viewBox="0 0 45 45" fill="none" xmlns="http://www.w3.org/2000/svg">
<rect x="0.424528" y="0.424528" width="44.1509" height="44.1509" rx="3.39448" stroke="#EDEDED" stroke-width="0.849057"/>
<g opacity="0.8">
<path fill-rule="evenodd" clip-rule="evenodd" d="M23.7322 28.0313C23.0674 28.4962 22.2756 28.745 21.4643 28.7439C19.2737 28.7439 17.4956 26.9655 17.4956 24.7748C17.4956 24.4778 17.5608 24.1188 17.6836 23.7238C17.5345 23.6622 17.3828 23.6072 17.2289 23.5589C17.0335 23.4983 16.8604 23.3814 16.7311 23.2228C16.6019 23.0641 16.5224 22.8709 16.5025 22.6673C16.4808 22.4805 16.4612 22.2934 16.4439 22.1061C16.4193 21.8525 16.3027 21.6166 16.1161 21.443C15.9296 21.2694 15.6859 21.1701 15.4312 21.1638C15.3035 21.1648 15.1756 21.1648 15.0479 21.1675C14.7941 21.1739 14.5513 21.2728 14.3654 21.4458C14.1795 21.6187 14.0633 21.8537 14.0387 22.1064C14.017 22.2924 13.998 22.4876 13.9804 22.6676C13.9606 22.8721 13.8808 23.0661 13.751 23.2254C13.6213 23.3846 13.4474 23.502 13.2512 23.5627C13.0681 23.6165 12.8887 23.6817 12.7124 23.7549C12.5237 23.834 12.3159 23.8556 12.115 23.8172C11.914 23.7787 11.7289 23.6818 11.5828 23.5386C11.4461 23.4094 11.3109 23.2787 11.1772 23.1464C10.9953 22.9679 10.7544 22.8622 10.4999 22.8491C10.2454 22.836 9.99493 22.9165 9.79571 23.0753C9.69844 23.1585 9.60048 23.2406 9.50425 23.3247C9.31388 23.4928 9.19156 23.7246 9.16036 23.9766C9.12917 24.2286 9.19124 24.4833 9.33488 24.6927C9.43767 24.849 9.54874 25.0107 9.65084 25.1601C9.76706 25.3295 9.83066 25.5294 9.83367 25.7348C9.83667 25.9402 9.77895 26.1419 9.66774 26.3146C9.56185 26.4732 9.46665 26.6388 9.37835 26.8078C9.28466 26.9897 9.13938 27.1399 8.96071 27.2397C8.78204 27.3394 8.57791 27.3841 8.37391 27.3683C8.19317 27.3583 7.99794 27.3432 7.81099 27.3287C7.55694 27.3089 7.30443 27.3828 7.1011 27.5363C6.89777 27.6899 6.75766 27.9126 6.70721 28.1624C6.68617 28.2883 6.66375 28.4142 6.64444 28.5408C6.60659 28.7918 6.66188 29.0479 6.79989 29.261C6.93789 29.474 7.14908 29.6292 7.39362 29.6973C7.57333 29.7511 7.76201 29.8035 7.9362 29.8522C8.13408 29.9073 8.31129 30.0196 8.44561 30.1751C8.57992 30.3305 8.66537 30.5221 8.69125 30.7259C8.71229 30.9156 8.7454 31.1036 8.78679 31.2898C8.83197 31.4894 8.81721 31.6979 8.74437 31.8891C8.67154 32.0803 8.54386 32.2457 8.37736 32.3646C8.23284 32.4733 8.07348 32.5871 7.92102 32.6961C7.71365 32.8442 7.56766 33.063 7.5106 33.3114C7.45353 33.5597 7.48934 33.8204 7.61127 34.0441C7.67612 34.1545 7.73993 34.2652 7.80616 34.3745C7.93848 34.5913 8.14557 34.752 8.38832 34.8265C8.63107 34.901 8.89269 34.884 9.12379 34.7788C9.29591 34.7046 9.47424 34.6236 9.63911 34.5487C9.82608 34.4638 10.034 34.4359 10.2367 34.4686C10.4394 34.5013 10.628 34.5932 10.7788 34.7326C10.9171 34.8643 11.0633 34.9871 11.2144 35.1034C11.3774 35.2271 11.5001 35.3963 11.5673 35.5896C11.6344 35.7829 11.6429 35.9918 11.5918 36.1899C11.5511 36.3662 11.5021 36.5559 11.4552 36.7373C11.3915 36.984 11.4203 37.2455 11.5362 37.4725C11.6521 37.6994 11.8471 37.876 12.0843 37.969C12.205 38.0118 12.3251 38.0556 12.4461 38.0967C12.6868 38.1775 12.9487 38.1675 13.1826 38.0686C13.4164 37.9697 13.6059 37.7887 13.7155 37.5596C13.7996 37.392 13.8842 37.2154 13.9621 37.0519C14.0507 36.8666 14.1921 36.7116 14.3684 36.6064C14.5448 36.5012 14.7483 36.4503 14.9534 36.4603C15.1442 36.4724 15.3349 36.4724 15.5257 36.4641C15.73 36.4544 15.9328 36.5052 16.1084 36.6101C16.2841 36.715 16.4249 36.8694 16.5132 37.054C16.595 37.2154 16.6795 37.392 16.7602 37.561C16.8699 37.791 17.0601 37.9729 17.2948 38.0722C17.5295 38.1715 17.7925 38.1815 18.034 38.1001C18.1537 38.0556 18.2741 38.0118 18.3931 37.9656C18.6294 37.8728 18.8237 37.6968 18.9392 37.4706C19.0547 37.2445 19.0835 36.9839 19.0202 36.738C18.977 36.5559 18.9281 36.3662 18.8829 36.1909C18.8317 35.992 18.8404 35.7824 18.9079 35.5884C18.9753 35.3944 19.0985 35.2246 19.2619 35.1003C19.4158 34.9871 19.562 34.8643 19.7028 34.7357C19.8529 34.5967 20.0408 34.5051 20.2429 34.4726C20.4449 34.44 20.652 34.4678 20.8383 34.5525C21.0049 34.6236 21.1832 34.7046 21.3536 34.7822C21.5856 34.8877 21.8481 34.9047 22.0917 34.83C22.3353 34.7552 22.5431 34.594 22.6761 34.3766C22.7392 34.2652 22.803 34.1545 22.8644 34.0424C22.9859 33.8195 23.0217 33.5598 22.9648 33.3123C22.908 33.0649 22.7626 32.8468 22.556 32.6992C22.4056 32.5871 22.2463 32.4733 22.099 32.3681C21.9319 32.2486 21.8037 32.0825 21.7307 31.8905C21.6577 31.6984 21.643 31.4891 21.6885 31.2888C21.7334 31.1036 21.7665 30.9156 21.7917 30.7262C21.8174 30.5233 21.9025 30.3325 22.0363 30.1778C22.1701 30.023 22.3465 29.9112 22.5436 29.8563C22.7171 29.8035 22.9058 29.7511 23.0862 29.7008C23.3317 29.6326 23.5438 29.4769 23.6824 29.263C23.821 29.0492 23.8765 28.792 23.8385 28.5401C23.815 28.4142 23.7929 28.2883 23.7681 28.1631C23.759 28.1184 23.7471 28.0744 23.7322 28.0313ZM15.2394 26.4701C17.1113 26.4701 18.6311 27.9896 18.6311 29.8615C18.6311 31.7334 17.1113 33.2528 15.2394 33.2528C13.3678 33.2528 11.848 31.7334 11.848 29.8615C11.848 27.9896 13.3678 26.4701 15.2394 26.4701ZM32.8901 21.7946C32.874 21.627 32.7976 21.471 32.6751 21.3555C32.5526 21.2401 32.3923 21.173 32.224 21.1669C32.0802 21.164 31.9363 21.1648 31.7925 21.1693C31.6249 21.1756 31.4652 21.2425 31.3431 21.3575C31.221 21.4726 31.1448 21.628 31.1285 21.795C31.1096 21.9674 31.0913 22.1554 31.0751 22.3217C31.0617 22.4591 31.0077 22.5894 30.92 22.6959C30.8322 22.8025 30.7148 22.8806 30.5825 22.9201C30.4204 22.9674 30.2611 23.0253 30.1055 23.0912C29.9791 23.1457 29.8395 23.1613 29.7042 23.1361C29.5689 23.1109 29.4442 23.0461 29.346 22.9498C29.2249 22.8346 29.0904 22.7025 28.9662 22.5807C28.8461 22.4628 28.6873 22.3925 28.5192 22.3828C28.3512 22.3731 28.1854 22.4247 28.0525 22.5279C27.9406 22.6183 27.8309 22.7114 27.7234 22.807C27.5991 22.9196 27.5198 23.0735 27.5002 23.2401C27.4807 23.4067 27.5222 23.5748 27.6172 23.7131C27.7134 23.8576 27.8203 24.0132 27.9148 24.1512C28.0745 24.384 28.0773 24.6903 27.9221 24.9262C27.8285 25.0671 27.7432 25.2134 27.6668 25.3643C27.6049 25.4871 27.5079 25.5888 27.388 25.6563C27.2682 25.7239 27.131 25.7543 26.9939 25.7437C26.8273 25.7334 26.639 25.7189 26.4658 25.7054C26.298 25.6923 26.1311 25.7405 25.9962 25.841C25.8612 25.9415 25.7673 26.0876 25.7318 26.2521C25.7045 26.3936 25.6797 26.535 25.6593 26.6774C25.6364 26.8436 25.6745 27.0125 25.7666 27.1528C25.8587 27.293 25.9986 27.3951 26.1602 27.4401C26.3271 27.4887 26.5089 27.5394 26.6696 27.5839C26.9418 27.6598 27.1408 27.8926 27.1736 28.1731C27.1919 28.3414 27.2215 28.508 27.2595 28.6729C27.2911 28.8068 27.2822 28.947 27.2339 29.0759C27.1856 29.2047 27.1 29.3162 26.988 29.3962C26.8535 29.4952 26.7 29.6049 26.5589 29.7059C26.4218 29.8037 26.3249 29.9479 26.2861 30.1118C26.2474 30.2757 26.2694 30.448 26.3482 30.5969C26.4179 30.7224 26.4899 30.847 26.5658 30.9691C26.6551 31.1111 26.7929 31.216 26.9536 31.2642C27.1144 31.3124 27.2871 31.3007 27.4399 31.2312C27.5989 31.1615 27.7707 31.0832 27.9224 31.0142C28.0482 30.9572 28.1881 30.9388 28.3243 30.9615C28.4606 30.9841 28.587 31.0468 28.6875 31.1415C28.8096 31.2585 28.9389 31.3674 29.0741 31.4692C29.2997 31.6372 29.4015 31.9252 29.3311 32.1977C29.2921 32.3602 29.2449 32.5426 29.2014 32.7109C29.1595 32.874 29.178 33.0467 29.2537 33.1971C29.3294 33.3475 29.457 33.4653 29.6129 33.5288C29.7471 33.5802 29.8823 33.6295 30.0189 33.674C30.1786 33.7254 30.3515 33.7171 30.5055 33.6508C30.6596 33.5845 30.7844 33.4645 30.8567 33.3132C30.934 33.1573 31.0151 32.9872 31.0872 32.8365C31.1468 32.712 31.2421 32.608 31.3611 32.5378C31.48 32.4677 31.6171 32.4345 31.7549 32.4426C31.9236 32.4536 32.093 32.4536 32.262 32.445C32.3993 32.437 32.5359 32.4701 32.6544 32.5401C32.7728 32.6101 32.8677 32.7137 32.927 32.8379C33.0012 32.9872 33.0826 33.1573 33.1578 33.3142C33.2303 33.4661 33.3555 33.5865 33.5101 33.6531C33.6647 33.7197 33.8381 33.728 33.9984 33.6764C34.1343 33.6295 34.2695 33.5802 34.403 33.5267C34.5583 33.4634 34.6854 33.3459 34.7608 33.1961C34.8361 33.0462 34.8546 32.8741 34.8127 32.7116C34.7717 32.5426 34.7244 32.3602 34.683 32.1984C34.6486 32.0647 34.6548 31.9237 34.7007 31.7935C34.7467 31.6633 34.8303 31.5497 34.9411 31.4671C35.0773 31.3675 35.207 31.2585 35.3308 31.1432C35.4309 31.0488 35.5568 30.9864 35.6925 30.9638C35.8282 30.9413 35.9676 30.9597 36.0928 31.0167C36.2459 31.0832 36.4177 31.1615 36.576 31.2333C36.7292 31.303 36.9025 31.3148 37.0638 31.2665C37.225 31.2181 37.3632 31.113 37.4528 30.9704C37.5266 30.847 37.5987 30.7224 37.6663 30.5955C37.7447 30.4471 37.7666 30.2754 37.7279 30.1122C37.6893 29.9489 37.5928 29.8052 37.4563 29.7077C37.3162 29.6049 37.1627 29.4952 37.0272 29.3982C36.9149 29.3179 36.829 29.206 36.7805 29.0767C36.7319 28.9474 36.723 28.8066 36.7547 28.6722C36.795 28.508 36.8247 28.3414 36.8451 28.1734C36.8612 28.0368 36.9176 27.908 37.007 27.8036C37.0965 27.6991 37.2151 27.6236 37.3476 27.5867C37.5077 27.5394 37.6894 27.4887 37.8567 27.4422C38.019 27.3971 38.1594 27.2948 38.2519 27.1541C38.3444 27.0134 38.3826 26.8439 38.3596 26.6771C38.3374 26.5351 38.3116 26.3936 38.2824 26.2528C38.2471 26.0888 38.1535 25.9431 38.0189 25.8428C37.8844 25.7426 37.7181 25.6945 37.5508 25.7075C37.3773 25.7189 37.1893 25.7334 37.0227 25.7465C36.8851 25.757 36.7474 25.7264 36.6272 25.6586C36.507 25.5907 36.4097 25.4886 36.3477 25.3653C36.2726 25.2137 36.1887 25.0666 36.0962 24.9249C36.0207 24.8099 35.9811 24.6751 35.9825 24.5375C35.9839 24.4 36.0262 24.2659 36.1042 24.1526C36.1962 24.0132 36.3032 23.8577 36.4011 23.7145C36.4965 23.5758 36.5383 23.4071 36.5187 23.2399C36.4991 23.0726 36.4194 22.9182 36.2946 22.8053C36.1862 22.7108 36.0756 22.619 35.9627 22.53C35.8303 22.427 35.6649 22.3756 35.4974 22.3852C35.3299 22.3949 35.1716 22.465 35.0518 22.5824C34.9262 22.7025 34.7914 22.8346 34.6724 22.9515C34.5737 23.0482 34.4486 23.1133 34.3128 23.1386C34.1771 23.1639 34.0369 23.1483 33.9101 23.0936C33.7555 23.0253 33.5962 22.9674 33.4344 22.9181C33.3027 22.8785 33.1857 22.8006 33.0984 22.6943C33.011 22.5881 32.9573 22.4582 32.9439 22.3213C32.9253 22.1554 32.907 21.9674 32.8901 21.7946ZM32.0081 25.077C32.6714 25.0772 33.3074 25.3408 33.7763 25.8098C34.2453 26.2788 34.5089 26.9148 34.5092 27.5781C34.5088 28.2412 34.2452 28.8772 33.7762 29.3461C33.3073 29.815 32.6713 30.0785 32.0081 30.0788C31.345 30.0784 30.7091 29.8148 30.2402 29.3459C29.7713 28.877 29.5077 28.2412 29.5074 27.5781C29.5077 26.9149 29.7712 26.2789 30.2401 25.8099C30.709 25.341 31.3449 25.0773 32.0081 25.077ZM12.9522 7.15066C13.0153 7.05676 13.1005 6.97981 13.2003 6.92661C13.3002 6.87341 13.4116 6.84558 13.5247 6.84558C13.6379 6.84558 13.7493 6.87341 13.8491 6.92661C13.949 6.97981 14.0342 7.05676 14.0973 7.15066C15.1735 8.68422 17.3893 12.039 17.3893 13.6543C17.3893 15.7873 15.6578 17.5189 13.5247 17.5189C11.3917 17.5189 9.66015 15.7873 9.66015 13.6543C9.66015 12.039 11.876 8.68422 12.9522 7.15066ZM25.9774 11.3512C26.0396 11.2544 26.1252 11.1749 26.2262 11.1198C26.3272 11.0646 26.4404 11.0358 26.5555 11.0358C26.6705 11.0358 26.7838 11.0646 26.8848 11.1198C26.9858 11.1749 27.0713 11.2544 27.1336 11.3512C27.9883 12.5878 29.4894 14.9247 29.4894 16.0829C29.4894 17.7024 28.1746 19.0173 26.5555 19.0173C24.936 19.0173 23.6212 17.7024 23.6212 16.0829C23.6212 14.9247 25.1223 12.5878 25.9774 11.3512Z" fill="url(#paint0_linear_5425_292277)"/>
<path fill-rule="evenodd" clip-rule="evenodd" d="M20.8861 20.0428C20.9484 19.946 21.0339 19.8664 21.1349 19.8113C21.2359 19.7561 21.3491 19.7272 21.4641 19.7272C21.5792 19.7271 21.6924 19.756 21.7935 19.8111C21.8945 19.8662 21.9801 19.9457 22.0423 20.0425C22.8971 21.2794 24.3982 23.6163 24.3982 24.7745C24.3982 26.394 23.0837 27.7089 21.4642 27.7089C19.8448 27.7089 18.5303 26.394 18.5303 24.7745C18.5303 23.6163 20.0314 21.2794 20.8861 20.0428Z" fill="url(#paint1_linear_5425_292277)"/>
</g>
<defs>
<linearGradient id="paint0_linear_5425_292277" x1="35.4704" y1="7.6695" x2="10.2394" y2="39.0169" gradientUnits="userSpaceOnUse">
<stop stop-color="#8B8585"/>
<stop offset="1" stop-color="#464444"/>
</linearGradient>
<linearGradient id="paint1_linear_5425_292277" x1="23.8627" y1="19.9372" x2="17.3139" y2="25.8389" gradientUnits="userSpaceOnUse">
<stop stop-color="#8B8585"/>
<stop offset="1" stop-color="#464444"/>
</linearGradient>
</defs>
</svg>
