<svg width="46" height="45" viewBox="0 0 46 45" fill="none" xmlns="http://www.w3.org/2000/svg">
<rect x="12.8414" y="16.8424" width="20.825" height="1.62046" fill="#4D4D4D" stroke="#949494" stroke-width="0.3"/>
<rect x="12.8414" y="19.7231" width="20.825" height="1.62046" fill="#4D4D4D" stroke="#949494" stroke-width="0.3"/>
<rect x="12.8414" y="22.6036" width="20.825" height="1.62046" fill="#4D4D4D" stroke="#949494" stroke-width="0.3"/>
<rect x="12.8414" y="25.4844" width="20.825" height="1.62046" fill="#4D4D4D" stroke="#949494" stroke-width="0.3"/>
<mask id="path-5-inside-1_6497_346767" fill="white">
<path d="M35.0968 16.6921C35.7693 16.6921 36.4353 16.8246 37.0566 17.082C37.6779 17.3393 38.2425 17.7166 38.718 18.1921C39.1936 18.6677 39.5708 19.2322 39.8282 19.8535C40.0856 20.4749 40.218 21.1408 40.218 21.8134C40.218 22.4859 40.0856 23.1518 39.8282 23.7732C39.5708 24.3945 39.1936 24.9591 38.718 25.4346C38.2425 25.9101 37.6779 26.2874 37.0566 26.5447C36.4353 26.8021 35.7693 26.9346 35.0968 26.9346L35.0968 21.8134L35.0968 16.6921Z"/>
</mask>
<path d="M35.0968 16.6921C35.7693 16.6921 36.4353 16.8246 37.0566 17.082C37.6779 17.3393 38.2425 17.7166 38.718 18.1921C39.1936 18.6677 39.5708 19.2322 39.8282 19.8535C40.0856 20.4749 40.218 21.1408 40.218 21.8134C40.218 22.4859 40.0856 23.1518 39.8282 23.7732C39.5708 24.3945 39.1936 24.9591 38.718 25.4346C38.2425 25.9101 37.6779 26.2874 37.0566 26.5447C36.4353 26.8021 35.7693 26.9346 35.0968 26.9346L35.0968 21.8134L35.0968 16.6921Z" fill="#4D4D4D" stroke="#949494" mask="url(#path-5-inside-1_6497_346767)"/>
<mask id="path-6-inside-2_6497_346767" fill="white">
<path d="M11.411 26.9348C10.7385 26.9348 10.0725 26.8024 9.4512 26.545C8.82987 26.2876 8.26531 25.9104 7.78976 25.4348C7.31421 24.9593 6.93699 24.3947 6.67962 23.7734C6.42226 23.1521 6.28979 22.4861 6.28979 21.8136C6.28979 21.1411 6.42226 20.4751 6.67962 19.8538C6.93699 19.2325 7.31421 18.6679 7.78976 18.1924C8.26531 17.7168 8.82987 17.3396 9.45121 17.0822C10.0725 16.8248 10.7385 16.6924 11.411 16.6924L11.411 21.8136L11.411 26.9348Z"/>
</mask>
<path d="M11.411 26.9348C10.7385 26.9348 10.0725 26.8024 9.4512 26.545C8.82987 26.2876 8.26531 25.9104 7.78976 25.4348C7.31421 24.9593 6.93699 24.3947 6.67962 23.7734C6.42226 23.1521 6.28979 22.4861 6.28979 21.8136C6.28979 21.1411 6.42226 20.4751 6.67962 19.8538C6.93699 19.2325 7.31421 18.6679 7.78976 18.1924C8.26531 17.7168 8.82987 17.3396 9.45121 17.0822C10.0725 16.8248 10.7385 16.6924 11.411 16.6924L11.411 21.8136L11.411 26.9348Z" fill="#4D4D4D" stroke="#949494" mask="url(#path-6-inside-2_6497_346767)"/>
<line x1="15.2525" y1="10.9316" x2="15.2525" y2="15.4127" stroke="#4D4D4D" stroke-width="1.2803"/>
<line x1="32.5357" y1="28.8557" x2="32.5357" y2="33.3367" stroke="#4D4D4D" stroke-width="1.2803"/>
<line x1="0.845703" y1="21.8139" x2="5.32677" y2="21.8139" stroke="#4D4D4D" stroke-width="1.2803"/>
<line x1="41.3652" y1="21.8139" x2="45.8463" y2="21.8139" stroke="#4D4D4D" stroke-width="1.2803"/>
</svg>
