<svg width="45" height="45" viewBox="0 0 45 45" fill="none" xmlns="http://www.w3.org/2000/svg">
<rect x="11.8414" y="16.8424" width="20.825" height="1.62046" fill="#4D4D4D" stroke="#949494" stroke-width="0.3"/>
<rect x="11.8414" y="19.7231" width="20.825" height="1.62046" fill="#4D4D4D" stroke="#949494" stroke-width="0.3"/>
<rect x="11.8414" y="22.6036" width="20.825" height="1.62046" fill="#4D4D4D" stroke="#949494" stroke-width="0.3"/>
<rect x="11.8414" y="25.4844" width="20.825" height="1.62046" fill="#4D4D4D" stroke="#949494" stroke-width="0.3"/>
<mask id="path-5-inside-1_5425_291280" fill="white">
<path d="M34.0968 16.6921C34.7693 16.6921 35.4353 16.8246 36.0566 17.082C36.6779 17.3393 37.2425 17.7166 37.718 18.1921C38.1936 18.6677 38.5708 19.2322 38.8282 19.8535C39.0856 20.4749 39.218 21.1408 39.218 21.8134C39.218 22.4859 39.0856 23.1518 38.8282 23.7732C38.5708 24.3945 38.1936 24.9591 37.718 25.4346C37.2425 25.9101 36.6779 26.2874 36.0566 26.5447C35.4353 26.8021 34.7693 26.9346 34.0968 26.9346L34.0968 21.8134L34.0968 16.6921Z"/>
</mask>
<path d="M34.0968 16.6921C34.7693 16.6921 35.4353 16.8246 36.0566 17.082C36.6779 17.3393 37.2425 17.7166 37.718 18.1921C38.1936 18.6677 38.5708 19.2322 38.8282 19.8535C39.0856 20.4749 39.218 21.1408 39.218 21.8134C39.218 22.4859 39.0856 23.1518 38.8282 23.7732C38.5708 24.3945 38.1936 24.9591 37.718 25.4346C37.2425 25.9101 36.6779 26.2874 36.0566 26.5447C35.4353 26.8021 34.7693 26.9346 34.0968 26.9346L34.0968 21.8134L34.0968 16.6921Z" fill="#4D4D4D" stroke="#949494" mask="url(#path-5-inside-1_5425_291280)"/>
<mask id="path-6-inside-2_5425_291280" fill="white">
<path d="M10.411 26.9348C9.73848 26.9348 9.07254 26.8024 8.4512 26.545C7.82987 26.2876 7.26531 25.9104 6.78976 25.4348C6.31421 24.9593 5.93699 24.3947 5.67962 23.7734C5.42226 23.1521 5.28979 22.4861 5.28979 21.8136C5.28979 21.1411 5.42226 20.4751 5.67962 19.8538C5.93699 19.2325 6.31421 18.6679 6.78976 18.1924C7.26531 17.7168 7.82987 17.3396 8.45121 17.0822C9.07254 16.8248 9.73848 16.6924 10.411 16.6924L10.411 21.8136L10.411 26.9348Z"/>
</mask>
<path d="M10.411 26.9348C9.73848 26.9348 9.07254 26.8024 8.4512 26.545C7.82987 26.2876 7.26531 25.9104 6.78976 25.4348C6.31421 24.9593 5.93699 24.3947 5.67962 23.7734C5.42226 23.1521 5.28979 22.4861 5.28979 21.8136C5.28979 21.1411 5.42226 20.4751 5.67962 19.8538C5.93699 19.2325 6.31421 18.6679 6.78976 18.1924C7.26531 17.7168 7.82987 17.3396 8.45121 17.0822C9.07254 16.8248 9.73848 16.6924 10.411 16.6924L10.411 21.8136L10.411 26.9348Z" fill="#4D4D4D" stroke="#949494" mask="url(#path-6-inside-2_5425_291280)"/>
</svg>
